Coordinates
version=1
nRows=17
nColumns=36
inDegrees=yes

Units are S.I. units (second, meters, Newtons, ...)
If the header above contains a line with 'inDegrees', this indicates whether rotational values are in degrees (yes) or radians (no).

endheader
time	pelvis_tilt	pelvis_list	pelvis_rotation	pelvis_tx	pelvis_ty	pelvis_tz	hip_flexion_r	hip_adduction_r	hip_rotation_r	knee_angle_r	knee_angle_r_beta	ankle_angle_r	subtalar_angle_r	mtp_angle_r	hip_flexion_l	hip_adduction_l	hip_rotation_l	knee_angle_l	knee_angle_l_beta	ankle_angle_l	subtalar_angle_l	mtp_angle_l	lumbar_extension	lumbar_bending	lumbar_rotation	arm_flex_r	arm_add_r	arm_rot_r	elbow_flex_r	pro_sup_r	arm_flex_l	arm_add_l	arm_rot_l	elbow_flex_l	pro_sup_l
      0.00000000	     -2.47642126	     -0.32504078	     -8.62369394	     -0.05254889	      1.27045569	     -0.37679273	     -2.44595625	      1.37020160	      5.20118409	      3.98101471	      0.06948181	      0.05299482	    -16.34210211	     -6.68198375	      1.47172643	      0.13687541	      2.82058196	      3.20183946	      0.05588264	     11.85898830	     -2.31291576	     -6.68198375	     -0.38054285	      1.38762614	     -4.83102592	      2.91627437	     -8.86700190	      7.38746032	     22.19039445	     88.81709937	     -2.39891439	    -10.49470641	      7.27434851	     16.52059328	     84.47034296
      0.01666670	     -2.74189302	      0.17745137	     -8.88860909	     -0.06290992	      1.26886713	     -0.37678717	     -2.28798628	      0.83708118	      3.20969151	      2.89803219	      0.05058020	      2.45868242	    -13.07051723	     -6.72047570	      1.78694808	      0.63717285	      1.99808523	      2.47185892	      0.04314208	     10.87646068	     -2.61530218	     -6.72047570	     -0.84420209	      0.90573522	     -4.50332498	      3.27701976	     -8.87092045	      8.33412277	     22.43538122	     89.84025841	     -2.31654723	    -10.67752666	      7.41040649	     16.64351491	     85.41782445
      0.03333330	     -3.11254669	      0.39475363	     -8.74452168	     -0.05264311	      1.27045419	     -0.37698192	     -2.21783110	      0.81843010	      2.27440644	      2.38747238	      0.04166925	      3.12993463	    -12.07732059	     -6.82827729	      1.54961236	      0.75483620	      2.57139371	      1.73400998	      0.03026418	     10.33035914	     -2.88616783	     -6.82827729	     -0.37909174	      0.80417226	     -4.67518091	      3.71998603	     -9.08589863	     10.55220551	     21.87523406	     92.66566977	     -2.49347220	    -10.60498364	      7.16058543	     16.11204863	     88.28814544
      0.05000000	     -3.33278297	      0.64008632	     -8.74256502	     -0.05359732	      1.26890979	     -0.37727416	     -2.00830890	      0.60153859	      1.69793388	      2.39168892	      0.04174285	      4.13255759	    -11.50659649	     -7.07103643	      1.66740117	      1.02483217	      2.42809745	      1.51260990	      0.02640002	     10.59602183	     -2.55076051	     -7.07103643	     -0.10407919	      0.63342195	     -4.91841486	      4.26411347	     -9.19663295	     12.11161253	     21.77943997	     93.99162401	     -2.66952764	    -10.53832427	      6.53574265	     16.07917282	     90.79047745
      0.06666670	     -3.23222388	      0.87734401	     -8.77934200	     -0.05481626	      1.26842918	     -0.37731673	     -1.83179776	      0.36513944	      1.75778077	      2.93703091	      0.05126086	      5.69190788	    -10.94826860	     -7.20847288	      1.47214935	      1.37254523	      2.80482603	      1.52271621	      0.02657641	     10.73543467	     -2.45325936	     -7.20847288	     -0.14030611	      0.36050247	     -4.93170519	      4.76986938	     -9.00505127	     13.07432655	     21.34989790	     91.77400375	     -2.34252214	    -10.43365871	      6.88466560	     15.38656673	     89.21965598
      0.08333330	     -2.94525645	      1.11406922	     -8.75568626	     -0.05624111	      1.26853894	     -0.37748013	     -1.79872596	      0.03848190	      1.71722169	      3.54119201	      0.06180546	      7.06681729	    -10.47657492	     -7.34969889	      1.17859449	      1.71070424	      2.70615615	      1.59815760	      0.02789311	     10.91784255	     -1.83206218	     -7.34969889	     -0.70225796	      0.06208213	     -4.86585490	      5.02292136	     -8.86137193	     12.03810936	     21.62479003	     96.36253048	     -2.12382967	    -10.36692721	      4.36632795	     15.75087776	     95.66052830
      0.10000000	     -2.13626572	      1.24182732	     -8.69282412	     -0.05750112	      1.26939922	     -0.37747226	     -2.45695843	     -0.24308313	      1.82883638	      4.00550744	      0.06990929	      7.93557861	    -10.46866919	     -7.37688597	      0.23936505	      1.98449619	      2.37933035	      1.74171561	      0.03039867	     11.02626946	     -1.29456244	     -7.37688597	     -1.98822281	     -0.18732298	     -4.80896748	      5.67755401	     -8.71942018	     12.48674096	     21.96649398	     93.65735269	     -1.85538212	    -10.52289434	      4.75511885	     16.15999798	     93.09499391
      0.11666670	     -1.75345162	      1.40613794	     -8.65222496	     -0.05891625	      1.26693396	     -0.37779660	     -2.60664787	     -0.50145180	      1.73708968	      4.63976684	      0.08097921	      8.75853432	    -10.23296251	     -7.41525710	     -0.08987284	      2.20050033	      2.47806662	      1.91440839	      0.03341273	     10.98624697	     -1.53384025	     -7.41525710	     -2.52893141	     -0.48307775	     -4.62519915	      6.11426218	     -8.90654423	     14.54494286	     21.94035093	     94.81771044	     -1.17715219	    -10.78093772	      6.58619228	     15.59365476	     95.18328086
      0.13333330	     -1.21850553	      1.57570554	     -8.40682162	     -0.05992810	      1.27048130	     -0.37781825	     -3.05099280	     -0.76808378	      1.68647602	      4.94826833	      0.08636357	      9.04798780	    -10.46122629	     -7.42376971	     -0.53621880	      2.46349324	      2.23345658	      1.90124042	      0.03318291	     10.80443405	     -1.28142205	     -7.42376971	     -3.45947965	     -0.77858570	     -4.65024624	      6.39626128	     -8.80015272	     14.60409395	     22.38279581	     93.47044932	     -0.93621480	    -10.94525731	      6.72299864	     15.88948419	     93.91794702
      0.15000000	     -0.86046283	      1.73435298	     -8.24568497	     -0.06095522	      1.26812168	     -0.37791367	     -3.25145788	     -1.02432436	      1.51119113	      5.16858966	      0.09020891	      9.54943625	    -10.33170459	     -7.46530146	     -0.94342362	      2.68970932	      2.21556466	      1.90956709	      0.03332823	     10.66916093	     -1.18259908	     -7.46530146	     -4.11579849	     -1.02411816	     -4.62015871	      6.57779627	     -8.71632748	     13.93696554	     22.71154408	     97.22429022	     -0.67523578	    -11.08795527	      5.77568189	     16.10198844	     98.22772303
      0.16666670	     -0.73212467	      1.84354618	     -8.01533671	     -0.07186021	      1.27122505	     -0.37729269	     -3.14830782	     -1.15420424	      1.41199544	      5.41433206	      0.09449792	      9.72470465	    -10.48952469	     -7.46549276	     -0.86377605	      2.77374095	      2.10083228	      2.18434891	      0.03812408	     10.45263616	     -1.16648085	     -7.46549276	     -4.61419729	     -1.23420620	     -4.66785980	      6.90562782	     -8.58454239	     13.98156857	     22.83856659	     97.24153499	     -0.20615797	    -11.29958499	      5.78013311	     16.26272640	     98.25108279
      0.18333330	     -0.20103856	      1.89413665	     -7.87358672	     -0.06215812	      1.27202126	     -0.37791138	     -3.56972060	     -1.31862501	      1.32849174	      5.54087114	      0.09670644	      9.97870833	    -10.59350979	     -7.46637048	     -1.42765603	      2.89953610	      1.98646858	      2.17446136	      0.03795151	     10.39634004	     -1.15098701	     -7.46637048	     -5.55319987	     -1.37170613	     -4.70237185	      7.09126230	     -8.60272563	     14.21214198	     23.13665613	     97.37294877	      0.00045946	    -11.45328424	      6.02620786	     16.68427890	     98.48346639
      0.20000000	     -0.22657447	      1.89482018	     -7.78628550	     -0.06431104	      1.27191864	     -0.37156993	     -3.42800961	     -1.33378042	      1.33793414	      5.51160843	      0.09619571	      9.98203741	    -10.59095571	     -7.46637312	     -1.58809739	      2.85417996	      1.98624323	      2.21648619	      0.03868498	     10.38435759	     -1.14949612	     -7.46637312	     -5.56033673	     -1.36149036	     -4.70543332	      7.09132118	     -8.60367568	     14.21304918	     23.13772642	     97.37341216	      0.00761873	    -11.45375890	      6.02680247	     16.68728620	     98.48402352
      0.21666670	      0.49541092	      1.85624892	     -7.63233063	     -0.06553607	      1.27302731	     -0.37155579	     -4.07337891	     -1.34203649	      1.53964313	      5.48563054	      0.09574231	     10.18993994	    -10.88417937	     -7.47666777	     -2.24173438	      2.82273309	      2.18687301	      2.73527062	      0.04773948	     10.21019875	     -1.34823775	     -7.47666777	     -6.81298171	     -1.56018712	     -4.92643397	      7.46391729	     -8.59993903	     16.27114893	     23.43135952	     96.61297101	      0.39832755	    -12.20069765	      8.36522588	     17.19222972	     98.09542716
      0.23333330	      0.72150862	      1.82478463	     -7.54315164	     -0.06624947	      1.27295381	     -0.37159521	     -4.19776925	     -1.33793899	      1.50466396	      5.48891384	      0.09579962	     10.31176604	    -10.79765354	     -7.48476302	     -2.49788633	      2.74065316	      2.30831536	      3.06521583	      0.05349811	     10.22516145	     -1.36253926	     -7.48476302	     -7.28572041	     -1.60989681	     -4.91416981	      7.46126271	     -8.39415356	     14.80956082	     23.76648451	     98.99901639	      0.53269349	    -12.34787694	      7.40192623	     17.57497681	    100.57259145
      0.25000000	      0.88040070	      1.79585595	     -7.40672559	     -0.06684368	      1.27325830	     -0.37179065	     -4.32632576	     -1.28658107	      1.56833469	      5.34636262	      0.09331163	     10.35271138	    -10.79436960	     -7.48583549	     -2.63641063	      2.65683717	      2.52863022	      3.38191293	      0.05902552	     10.27384585	     -1.30095789	     -7.48583549	     -7.64030729	     -1.64929129	     -4.99802446	      7.45153186	     -8.32648440	     14.66102026	     24.13611358	     98.27003614	      0.65244217	    -12.52130621	      7.37703836	     17.94194895	     99.90944386
      0.26666670	      0.82851310	      1.80992676	     -7.27277402	     -0.07544251	      1.27276837	     -0.37756907	     -4.12536208	     -1.28041157	      1.64324645	      5.27064989	      0.09199019	     10.37603297	    -10.76882794	     -7.48586283	     -2.59098189	      2.63173641	      2.69798024	      3.49365402	      0.06097577	     10.25966281	     -1.20276729	     -7.48586283	     -7.74754006	     -1.67832747	     -5.00680276	      7.77374675	     -8.34902294	     14.64193690	     24.20626022	     98.28164006	      0.97129735	    -12.61724091	      7.36841028	     18.04895317	     99.92413206
